<mxfile host="app.diagrams.net" modified="2022-11-29T15:05:46.140Z" agent="5.0 (Windows NT 10.0; Win64; x64) AppleWebKit/537.36 (KHTML, like Gecko) Chrome/107.0.0.0 Safari/537.36" etag="-FAVhxJvGimbuJeMrx2j" version="20.6.0" type="github">
  <diagram id="Imn3hFFf4fDGGl913a61" name="Page-1">
    <mxGraphModel dx="1038" dy="571" grid="1" gridSize="10" guides="1" tooltips="1" connect="1" arrows="1" fold="1" page="1" pageScale="1" pageWidth="850" pageHeight="1100" math="0" shadow="0">
      <root>
        <mxCell id="0" />
        <mxCell id="1" parent="0" />
        <mxCell id="LGBe43ewEKFTzgu4mhNF-1" value="학생" style="shape=umlActor;verticalLabelPosition=bottom;verticalAlign=top;html=1;" parent="1" vertex="1">
          <mxGeometry x="50" y="340" width="40" height="80" as="geometry" />
        </mxCell>
        <mxCell id="LGBe43ewEKFTzgu4mhNF-14" value="&lt;br&gt;수강신청취소하기" style="ellipse;whiteSpace=wrap;html=1;verticalAlign=top;align=center;" parent="1" vertex="1">
          <mxGeometry x="145" y="320" width="120" height="70" as="geometry" />
        </mxCell>
        <mxCell id="LGBe43ewEKFTzgu4mhNF-17" value="&lt;br&gt;수강인원확인하기" style="ellipse;whiteSpace=wrap;html=1;verticalAlign=top;" parent="1" vertex="1">
          <mxGeometry x="145" y="440" width="120" height="60" as="geometry" />
        </mxCell>
        <mxCell id="LGBe43ewEKFTzgu4mhNF-19" value="수강신청하기" style="ellipse;whiteSpace=wrap;html=1;" parent="1" vertex="1">
          <mxGeometry x="145" y="220" width="120" height="80" as="geometry" />
        </mxCell>
        <mxCell id="LGBe43ewEKFTzgu4mhNF-22" value="" style="endArrow=none;html=1;rounded=0;" parent="1" edge="1">
          <mxGeometry width="50" height="50" relative="1" as="geometry">
            <mxPoint x="160" y="300" as="sourcePoint" />
            <mxPoint x="90" y="360" as="targetPoint" />
          </mxGeometry>
        </mxCell>
        <mxCell id="LGBe43ewEKFTzgu4mhNF-24" value="" style="endArrow=none;html=1;rounded=0;" parent="1" edge="1">
          <mxGeometry width="50" height="50" relative="1" as="geometry">
            <mxPoint x="140" y="360" as="sourcePoint" />
            <mxPoint x="90" y="380" as="targetPoint" />
            <Array as="points" />
          </mxGeometry>
        </mxCell>
        <mxCell id="LGBe43ewEKFTzgu4mhNF-25" value="" style="endArrow=none;html=1;rounded=0;" parent="1" edge="1">
          <mxGeometry width="50" height="50" relative="1" as="geometry">
            <mxPoint x="90" y="400" as="sourcePoint" />
            <mxPoint x="145" y="460" as="targetPoint" />
          </mxGeometry>
        </mxCell>
        <mxCell id="LGBe43ewEKFTzgu4mhNF-31" value="&amp;lt;&amp;lt;include&amp;gt;&amp;gt;" style="endArrow=open;endSize=12;dashed=1;html=1;rounded=0;entryX=0.086;entryY=0.849;entryDx=0;entryDy=0;entryPerimeter=0;" parent="1" target="LGBe43ewEKFTzgu4mhNF-34" edge="1">
          <mxGeometry width="160" relative="1" as="geometry">
            <mxPoint x="270" y="460" as="sourcePoint" />
            <mxPoint x="430" y="400" as="targetPoint" />
          </mxGeometry>
        </mxCell>
        <mxCell id="LGBe43ewEKFTzgu4mhNF-32" value="&amp;lt;&amp;lt;include&amp;gt;&amp;gt;" style="endArrow=open;endSize=12;dashed=1;html=1;rounded=0;" parent="1" edge="1">
          <mxGeometry width="160" relative="1" as="geometry">
            <mxPoint x="270" y="355" as="sourcePoint" />
            <mxPoint x="420" y="370" as="targetPoint" />
          </mxGeometry>
        </mxCell>
        <mxCell id="LGBe43ewEKFTzgu4mhNF-33" value="&amp;lt;&amp;lt;include&amp;gt;&amp;gt;" style="endArrow=open;endSize=12;dashed=1;html=1;rounded=0;entryX=0.063;entryY=0.22;entryDx=0;entryDy=0;entryPerimeter=0;" parent="1" target="LGBe43ewEKFTzgu4mhNF-34" edge="1">
          <mxGeometry width="160" relative="1" as="geometry">
            <mxPoint x="270" y="270" as="sourcePoint" />
            <mxPoint x="430" y="330" as="targetPoint" />
          </mxGeometry>
        </mxCell>
        <mxCell id="LGBe43ewEKFTzgu4mhNF-34" value="로그인" style="ellipse;whiteSpace=wrap;html=1;" parent="1" vertex="1">
          <mxGeometry x="430" y="330" width="140" height="70" as="geometry" />
        </mxCell>
      </root>
    </mxGraphModel>
  </diagram>
</mxfile>
